<svg width="74" height="74" viewBox="0 0 74 74" fill="none" xmlns="http://www.w3.org/2000/svg">
<rect x="0.5" y="0.5" width="73" height="73" fill="white" stroke="#EEEEEE"/>
<path d="M37 28.75C36.0469 28.75 35.1641 28.9844 34.3516 29.4531C33.5547 29.9219 32.9219 30.5625 32.4531 31.375C31.9844 32.1719 31.75 33.0469 31.75 34C31.75 34.8906 31.9531 35.7188 32.3594 36.4844C32.7812 37.25 33.3516 37.875 34.0703 38.3594C33.1797 38.75 32.3828 39.2891 31.6797 39.9766C30.9922 40.6641 30.4609 41.4531 30.0859 42.3438C29.6953 43.2656 29.5 44.2344 29.5 45.25H31C31 44.1562 31.2656 43.1562 31.7969 42.25C32.3438 41.3281 33.0703 40.6016 33.9766 40.0703C34.8984 39.5234 35.9062 39.25 37 39.25C38.0938 39.25 39.0938 39.5234 40 40.0703C40.9219 40.6016 41.6484 41.3281 42.1797 42.25C42.7266 43.1562 43 44.1562 43 45.25H44.5C44.5 44.2344 44.3047 43.2656 43.9141 42.3438C43.5391 41.4531 43 40.6641 42.2969 39.9766C41.6094 39.2891 40.8203 38.75 39.9297 38.3594C40.6484 37.875 41.2109 37.25 41.6172 36.4844C42.0391 35.7188 42.25 34.8906 42.25 34C42.25 33.0469 42.0156 32.1719 41.5469 31.375C41.0781 30.5625 40.4375 29.9219 39.625 29.4531C38.8281 28.9844 37.9531 28.75 37 28.75ZM37 30.25C37.6875 30.25 38.3125 30.4219 38.875 30.7656C39.4531 31.0938 39.9062 31.5469 40.2344 32.125C40.5781 32.6875 40.75 33.3125 40.75 34C40.75 34.6875 40.5781 35.3203 40.2344 35.8984C39.9062 36.4609 39.4531 36.9141 38.875 37.2578C38.3125 37.5859 37.6875 37.75 37 37.75C36.3125 37.75 35.6797 37.5859 35.1016 37.2578C34.5391 36.9141 34.0859 36.4609 33.7422 35.8984C33.4141 35.3203 33.25 34.6875 33.25 34C33.25 33.3125 33.4141 32.6875 33.7422 32.125C34.0859 31.5469 34.5391 31.0938 35.1016 30.7656C35.6797 30.4219 36.3125 30.25 37 30.25Z" fill="black"/>
</svg>
