<svg width="74" height="74" viewBox="0 0 74 74" fill="none" xmlns="http://www.w3.org/2000/svg">
<rect x="0.5" y="0.5" width="73" height="73" fill="white" stroke="#EEEEEE"/>
<path d="M37 27.25C36.3281 27.25 35.7031 27.4219 35.125 27.7656C34.5469 28.0938 34.0859 28.5469 33.7422 29.125C33.4141 29.7031 33.25 30.3281 33.25 31V31.75H29.5469L29.5 32.4531L28.7031 46.75H45.2969L44.5 32.4531L44.4531 31.75H40.75V31C40.75 30.3281 40.5781 29.7031 40.2344 29.125C39.9062 28.5469 39.4531 28.0938 38.875 27.7656C38.2969 27.4219 37.6719 27.25 37 27.25ZM37 28.75C37.625 28.75 38.1562 28.9688 38.5938 29.4062C39.0312 29.8438 39.25 30.375 39.25 31V31.75H34.75V31C34.75 30.375 34.9688 29.8438 35.4062 29.4062C35.8438 28.9688 36.375 28.75 37 28.75ZM30.9531 33.25H33.25V35.5H34.75V33.25H39.25V35.5H40.75V33.25H43.0469L43.7031 45.25H30.2969L30.9531 33.25Z" fill="black"/>
<circle cx="45" cy="45" r="5.5" fill="#F43319" stroke="white"/>
</svg>
